<svg width="19" height="23" viewBox="0 0 19 23" fill="none" xmlns="http://www.w3.org/2000/svg">
<path d="M9.5 12.4978C11.1569 12.4978 12.5 11.1547 12.5 9.4978C12.5 7.84095 11.1569 6.4978 9.5 6.4978C7.84315 6.4978 6.5 7.84095 6.5 9.4978C6.5 11.1547 7.84315 12.4978 9.5 12.4978Z" stroke="#ABA1A1" stroke-width="2" stroke-linecap="round" stroke-linejoin="round"/>
<path d="M9.5 1.4978C7.37827 1.4978 5.34344 2.34066 3.84315 3.84095C2.34285 5.34124 1.5 7.37607 1.5 9.4978C1.5 11.3898 1.902 12.6278 3 13.9978L9.5 21.4978L16 13.9978C17.098 12.6278 17.5 11.3898 17.5 9.4978C17.5 7.37607 16.6571 5.34124 15.1569 3.84095C13.6566 2.34066 11.6217 1.4978 9.5 1.4978V1.4978Z" stroke="#ABA1A1" stroke-width="2" stroke-linecap="round" stroke-linejoin="round"/>
</svg>
