<svg width="124" height="121" viewBox="0 0 124 121" fill="none" xmlns="http://www.w3.org/2000/svg">
<g clip-path="url(#clip0_1_889)">
<path fill-rule="evenodd" clip-rule="evenodd" d="M91.65 56.53C100.42 56.53 108.38 60.09 114.13 65.84C119.88 71.6 123.44 79.55 123.44 88.32C123.44 97.1 119.88 105.05 114.13 110.8C108.37 116.55 100.42 120.11 91.65 120.11C82.87 120.11 74.92 116.55 69.17 110.8C63.42 105.04 59.86 97.09 59.86 88.32C59.86 79.55 63.42 71.59 69.17 65.84C74.92 60.09 82.88 56.53 91.65 56.53ZM97.87 76.78C99.29 75.34 101.61 75.33 103.04 76.77C104.47 78.21 104.48 80.54 103.05 81.99L96.81 88.32L103.06 94.66C104.47 96.09 104.45 98.41 103.02 99.85C101.59 101.28 99.28 101.28 97.87 99.84L91.66 93.55L85.44 99.86C84.02 101.31 81.7 101.31 80.27 99.87C78.84 98.43 78.83 96.1 80.26 94.65L86.5 88.32L80.25 81.98C78.84 80.55 78.86 78.23 80.29 76.79C81.72 75.36 84.03 75.36 85.44 76.8L91.65 83.09L97.87 76.78Z" fill="#1F83BE"/>
<path d="M69.99 4.04C69.99 1.82 72.18 0 74.91 0C77.64 0 79.83 1.8 79.83 4.04V21.7C79.83 23.92 77.64 25.74 74.91 25.74C72.18 25.74 69.99 23.94 69.99 21.7V4.04ZM13.97 57.17C13.69 57.17 13.44 55.94 13.44 54.44C13.44 52.93 13.66 51.72 13.97 51.72H27.41C27.69 51.72 27.94 52.95 27.94 54.44C27.94 55.94 27.72 57.17 27.41 57.17H13.97ZM35.38 57.17C35.1 57.17 34.85 55.94 34.85 54.44C34.85 52.93 35.07 51.72 35.38 51.72H48.82C49.1 51.72 49.35 52.95 49.35 54.44C49.35 55.94 49.13 57.17 48.82 57.17H35.38ZM56.8 57.17C56.52 57.17 56.27 55.94 56.27 54.44C56.27 52.93 56.49 51.72 56.8 51.72H70.24C70.52 51.72 70.77 52.94 70.77 54.43C69.42 55.27 68.13 56.18 66.89 57.17H56.8ZM14 72.8C13.72 72.8 13.47 71.57 13.47 70.07C13.47 68.56 13.69 67.34 14 67.34H27.44C27.72 67.34 27.97 68.56 27.97 70.07C27.97 71.57 27.75 72.8 27.44 72.8H14ZM35.41 72.8C35.13 72.8 34.88 71.57 34.88 70.07C34.88 68.56 35.1 67.34 35.41 67.34H48.85C49.13 67.34 49.38 68.56 49.38 70.07C49.38 71.57 49.16 72.8 48.85 72.8H35.41ZM14.03 88.43C13.75 88.43 13.5 87.21 13.5 85.7C13.5 84.2 13.72 82.97 14.03 82.97H27.46C27.74 82.97 27.99 84.2 27.99 85.7C27.99 87.21 27.77 88.43 27.46 88.43H14.03ZM35.44 88.43C35.16 88.43 34.91 87.21 34.91 85.7C34.91 84.2 35.13 82.97 35.44 82.97H48.88C49.16 82.97 49.41 84.2 49.41 85.7C49.41 87.21 49.19 88.43 48.88 88.43H35.44ZM25.77 4.04C25.77 1.81 27.96 0 30.69 0C33.42 0 35.61 1.8 35.61 4.04V21.7C35.61 23.92 33.41 25.74 30.69 25.74C27.96 25.74 25.77 23.94 25.77 21.7V4.04ZM5.98 38.61H99.75V18.28C99.75 17.58 99.47 16.97 99.02 16.53C98.57 16.09 97.93 15.8 97.27 15.8H88.28C86.78 15.8 85.55 14.57 85.55 13.07C85.55 11.57 86.78 10.34 88.28 10.34H97.27C99.47 10.34 101.45 11.23 102.89 12.67C104.34 14.11 105.22 16.09 105.22 18.29V50.57C103.43 49.95 101.58 49.45 99.69 49.08V44.04H99.75H5.98V96.7C5.98 97.4 6.26 98 6.71 98.45C7.16 98.9 7.8 99.18 8.46 99.18H53.02C53.53 101.07 54.17 102.92 54.93 104.69H8.51C6.32 104.69 4.33 103.8 2.89 102.36C1.45 100.92 0.559998 98.95 0.559998 96.75V18.3C0.559998 16.11 1.45 14.12 2.89 12.68C4.33 11.23 6.31 10.35 8.51 10.35H18.11C19.62 10.35 20.84 11.58 20.84 13.08C20.84 14.58 19.61 15.81 18.11 15.81H8.51C7.81 15.81 7.2 16.09 6.76 16.54C6.31 16.99 6.03 17.63 6.03 18.29V38.62H5.98V38.61ZM43.49 15.8C41.99 15.8 40.76 14.57 40.76 13.07C40.76 11.57 41.99 10.34 43.49 10.34H61.79C63.29 10.34 64.52 11.57 64.52 13.07C64.52 14.58 63.29 15.8 61.79 15.8H43.49Z" fill="#CCCCCC"/>
</g>
<defs>
<clipPath id="clip0_1_889">
<rect width="122.88" height="120.11" fill="white" transform="translate(0.559998)"/>
</clipPath>
</defs>
</svg>
